<svg xmlns="http://www.w3.org/2000/svg" pointer-events="none" class="leaflet-zoom-animated" width="1452" height="779" viewBox="-121 -65 1452 779" style="transform: translate3d(-121px, -65px, 0px);"><g><path class="leaflet-interactive" stroke="black" stroke-opacity="1" stroke-width="1" stroke-linecap="round" stroke-linejoin="round" fill="#fff" fill-opacity="0.2" fill-rule="evenodd" d="M601 472L600 478L601 477L605 486L609 487L610 489L620 487L625 491L621 495L616 495L617 500L630 510L644 514L643 516L659 527L663 531L663 533L661 534L669 549L672 548L684 555L692 573L706 573L714 570L708 537L700 517L691 504L672 482L672 469L661 446L658 435L658 427L667 415L675 413L681 409L689 409L689 406L699 405L710 398L714 398L718 402L734 402L739 405L745 394L748 392L754 392L756 389L753 388L751 384L754 378L755 379L757 377L753 370L754 366L752 366L749 363L753 359L753 353L755 348L753 344L754 341L763 343L765 342L771 345L771 350L776 354L780 354L777 345L780 345L780 343L782 342L779 339L778 334L776 332L781 329L781 327L777 323L778 317L775 318L769 315L769 308L775 308L777 306L772 303L764 303L767 300L758 297L757 294L753 291L753 289L748 286L746 279L743 278L746 273L745 267L733 262L734 259L736 259L737 257L735 256L735 254L741 253L741 250L743 251L741 249L742 247L751 246L755 242L756 237L758 237L761 233L765 233L766 231L769 232L772 230L774 231L775 226L781 224L785 220L784 224L786 224L788 227L788 225L791 222L796 220L796 218L791 215L794 212L790 210L791 207L795 204L796 200L794 198L794 194L792 193L792 188L789 179L783 176L777 178L763 177L758 179L756 177L752 179L750 177L747 177L733 185L728 184L721 195L717 198L711 198L710 196L707 196L706 198L709 201L709 208L706 209L702 208L701 206L699 210L690 208L682 218L684 218L682 220L685 223L686 227L688 227L686 231L688 233L685 237L688 240L684 242L684 244L678 251L670 247L668 241L662 242L664 242L656 247L651 247L644 244L645 243L643 239L641 239L637 235L638 234L628 235L626 233L621 233L621 237L617 240L614 251L611 251L608 254L607 258L598 257L601 259L596 267L593 266L588 269L586 268L586 273L582 271L582 274L576 276L575 280L579 286L573 291L573 294L569 294L568 292L568 295L567 294L563 297L561 296L562 295L553 295L554 296L552 298L547 300L545 299L538 306L528 306L528 309L522 307L518 308L513 317L514 319L518 314L521 315L519 316L524 324L520 327L521 328L519 330L520 338L527 339L528 342L532 338L534 338L535 340L530 346L534 349L532 354L534 356L533 357L537 360L537 364L535 367L544 368L545 365L542 359L547 358L548 356L551 357L553 351L556 352L557 350L562 354L563 357L570 362L571 367L569 376L573 378L578 384L578 388L572 393L572 396L573 398L578 398L578 404L576 404L577 410L579 410L579 412L569 416L569 418L572 422L578 425L590 426L590 432L592 432L588 435L590 439L588 444L601 456L597 458L597 464L595 467L596 469z"/><path class="leaflet-interactive" stroke="#333" stroke-opacity="1" stroke-width="0.5" stroke-linecap="round" stroke-linejoin="round" stroke-dasharray="1,6" fill="#fff" fill-opacity="0.2" fill-rule="evenodd" d="M586 393L583 399L579 396L578 404L576 404L577 410L579 410L579 412L569 416L572 422L582 426L590 426L594 423L586 409L589 408L589 403L586 400L589 399L589 397L586 394z"/><path class="leaflet-interactive" stroke="#333" stroke-opacity="1" stroke-width="0.5" stroke-linecap="round" stroke-linejoin="round" stroke-dasharray="1,6" fill="#fff" fill-opacity="0.2" fill-rule="evenodd" d="M586 393L589 398L586 400L589 402L589 408L593 406L600 408L607 407L605 398L604 399L601 396L603 394L600 393L599 395L597 394L591 397L589 395L591 394L588 391L586 391L586 393z"/><path class="leaflet-interactive" stroke="#333" stroke-opacity="1" stroke-width="0.5" stroke-linecap="round" stroke-linejoin="round" stroke-dasharray="1,6" fill="#fff" fill-opacity="0.2" fill-rule="evenodd" d="M607 407L600 408L594 406L586 409L590 418L595 423L607 423L614 425L617 425L624 417L632 413L630 412L631 411L624 408L610 407z"/><path class="leaflet-interactive" stroke="#333" stroke-opacity="1" stroke-width="0.5" stroke-linecap="round" stroke-linejoin="round" stroke-dasharray="1,6" fill="#fff" fill-opacity="0.2" fill-rule="evenodd" d="M603 393L601 396L603 399L604 398L605 406L607 407L624 408L631 410L634 404L637 403L639 400L639 398L636 398L637 395L631 394L634 389L632 385L633 384L626 378L628 373L627 369L624 370L621 374L615 374L614 383L609 389L606 388L603 391L604 393z"/><path class="leaflet-interactive" stroke="#333" stroke-opacity="1" stroke-width="0.5" stroke-linecap="round" stroke-linejoin="round" stroke-dasharray="1,6" fill="#fff" fill-opacity="0.2" fill-rule="evenodd" d="M603 393L604 394L603 391L606 388L609 389L614 383L616 373L620 374L626 369L628 370L628 373L630 371L630 368L632 368L634 371L633 368L636 367L634 364L635 363L639 365L639 369L637 369L638 370L646 370L654 363L654 359L651 358L655 353L655 350L649 346L646 347L643 343L645 341L644 340L646 340L647 338L644 335L644 329L643 330L642 328L644 328L645 325L646 326L652 323L647 318L638 321L637 325L632 325L628 328L626 328L626 323L623 322L622 320L621 322L618 322L616 323L616 325L612 326L610 330L606 327L603 330L600 330L597 335L595 335L593 338L591 338L591 336L591 342L585 343L585 345L581 345L577 337L568 337L565 340L563 344L564 353L562 354L563 357L570 362L571 367L569 376L573 378L578 384L578 388L572 393L573 398L578 398L579 396L582 399L584 398L586 391L588 391L591 394L591 397L593 397L593 395L601 394z"/><path class="leaflet-interactive" stroke="#333" stroke-opacity="1" stroke-width="0.5" stroke-linecap="round" stroke-linejoin="round" stroke-dasharray="1,6" fill="#fff" fill-opacity="0.2" fill-rule="evenodd" d="M631 410L630 412L632 413L627 415L627 419L632 420L638 417L644 417L652 421L658 429L658 427L663 422L665 417L671 414L665 408L665 406L668 404L665 392L666 390L670 390L673 392L672 383L674 382L673 381L675 379L674 377L676 372L679 371L679 368L677 368L679 366L677 364L679 361L679 357L675 358L675 356L678 355L676 355L676 349L678 350L678 352L680 351L676 348L674 344L676 342L674 338L669 334L667 335L663 330L658 329L656 324L650 322L650 324L648 324L647 326L645 325L644 328L642 328L642 330L644 329L644 335L647 338L646 340L644 340L645 341L643 343L646 347L649 346L650 348L655 350L654 354L651 357L654 360L654 362L654 360L655 361L653 364L651 364L651 367L647 368L646 370L638 370L637 369L639 369L639 365L635 363L634 364L636 367L633 368L634 371L631 368L627 374L626 378L633 384L632 385L634 388L631 394L633 393L637 395L636 398L639 398L639 400L634 404L633 408L631 409z"/><path class="leaflet-interactive" stroke="#333" stroke-opacity="1" stroke-width="0.5" stroke-linecap="round" stroke-linejoin="round" stroke-dasharray="1,6" fill="#fff" fill-opacity="0.2" fill-rule="evenodd" d="M590 426L590 432L592 432L588 435L590 439L588 444L601 456L597 458L597 464L595 467L601 472L611 470L623 465L644 464L671 478L672 469L661 446L658 430L652 421L644 417L638 417L632 420L627 420L627 415L619 422L618 425L614 426L608 423L603 424L596 422L590 425z"/><path class="leaflet-interactive" stroke="#333" stroke-opacity="1" stroke-width="0.5" stroke-linecap="round" stroke-linejoin="round" stroke-dasharray="1,6" fill="#fff" fill-opacity="0.2" fill-rule="evenodd" d="M646 318L646 316L641 312L644 308L642 304L640 302L636 302L636 298L638 296L637 291L639 291L637 291L637 289L636 290L634 286L631 285L625 285L623 287L618 285L615 287L614 282L610 279L607 279L606 277L612 275L604 270L598 269L595 266L588 269L586 268L586 273L582 271L582 274L576 276L575 280L579 286L573 291L573 294L569 294L568 292L568 295L567 294L563 297L561 296L562 295L553 295L554 296L552 298L547 300L545 299L538 306L528 306L528 309L522 307L518 308L513 317L514 319L518 314L521 315L519 316L524 324L520 327L521 328L519 330L520 338L527 339L528 342L532 338L534 338L535 340L530 346L534 349L532 354L534 356L533 357L537 360L537 364L535 367L536 368L544 368L545 365L542 359L547 358L548 356L551 357L553 351L556 352L557 350L558 352L564 354L563 345L568 337L576 337L579 339L579 343L581 345L585 345L585 343L591 342L591 336L591 338L593 338L594 335L597 335L600 330L601 331L606 327L610 330L611 327L616 325L617 322L620 322L622 320L626 322L626 328L628 328L631 325L637 325L638 321L644 319z"/><path class="leaflet-interactive" stroke="#333" stroke-opacity="1" stroke-width="0.5" stroke-linecap="round" stroke-linejoin="round" stroke-dasharray="1,6" fill="#fff" fill-opacity="0.2" fill-rule="evenodd" d="M601 472L600 478L601 477L605 486L609 487L610 489L620 487L625 491L621 495L616 495L617 500L630 510L644 514L643 516L659 527L663 531L663 533L661 534L669 549L672 548L684 555L692 573L706 573L714 570L708 537L700 517L668 476L644 464L631 463L629 465L619 466L611 470L602 472z"/><path class="leaflet-interactive" stroke="#333" stroke-opacity="1" stroke-width="0.5" stroke-linecap="round" stroke-linejoin="round" stroke-dasharray="1,6" fill="#fff" fill-opacity="0.2" fill-rule="evenodd" d="M738 264L733 262L734 259L736 259L737 257L735 256L735 254L741 253L741 250L743 251L741 249L742 247L751 246L755 242L756 237L758 237L761 233L765 233L766 231L769 232L772 230L774 231L775 226L781 224L785 220L784 224L786 224L788 227L788 225L791 222L796 220L796 218L791 215L794 212L790 210L791 207L795 204L796 200L794 198L794 194L792 193L792 188L789 179L783 176L777 178L763 177L758 179L756 177L752 179L750 177L747 177L733 185L728 184L719 197L711 198L710 196L707 196L706 198L709 201L709 208L706 209L702 208L701 206L699 210L690 208L682 218L684 218L682 220L685 223L686 227L688 227L686 231L688 233L685 237L688 240L684 242L684 244L678 251L670 247L668 241L662 242L664 242L656 247L651 247L644 244L645 243L643 239L641 239L637 235L638 234L628 235L626 233L621 233L621 237L617 240L614 251L611 251L608 254L607 258L598 257L601 259L596 267L612 275L606 277L607 279L612 280L615 286L618 285L623 287L625 285L630 285L635 287L636 290L637 289L637 291L639 291L637 291L639 296L636 298L636 302L642 303L642 306L644 308L641 311L646 316L646 318L656 324L658 329L663 329L667 335L669 334L670 329L672 329L672 325L675 323L679 316L681 316L688 309L694 308L702 297L705 297L709 293L708 291L710 286L712 286L713 284L712 279L715 276L717 269L723 266L730 267L737 265z"/><path class="leaflet-interactive" stroke="#333" stroke-opacity="1" stroke-width="0.5" stroke-linecap="round" stroke-linejoin="round" stroke-dasharray="1,6" fill="#fff" fill-opacity="0" fill-rule="evenodd" d="M671 414L681 409L689 409L689 406L691 405L699 405L710 398L714 398L718 402L734 402L739 405L745 394L748 392L754 392L756 389L753 388L751 384L754 378L755 379L757 377L753 370L754 366L752 366L749 363L753 359L753 353L755 348L753 344L754 341L763 343L765 342L771 345L771 350L776 354L780 354L777 345L780 345L780 343L782 342L779 339L778 334L776 332L781 329L781 327L777 323L778 317L775 318L769 315L769 308L775 308L777 306L772 303L764 303L767 300L758 297L757 294L753 291L753 289L748 286L746 279L743 278L746 273L746 269L742 265L738 264L735 266L724 266L718 268L717 272L712 279L713 286L711 286L709 289L709 293L703 297L694 308L688 309L681 316L679 316L678 319L675 320L675 323L672 325L672 329L671 328L669 331L669 333L676 342L674 343L676 348L680 350L679 352L676 349L676 355L678 355L675 356L675 358L678 357L679 363L677 364L679 366L677 368L679 368L679 370L676 372L674 377L675 379L673 381L674 382L672 383L673 391L665 391L668 403L665 408L670 413z"/></g></svg>